<svg version="1.1" xmlns="http://www.w3.org/2000/svg" xmlns:xlink="http://www.w3.org/1999/xlink" x="0px" y="0px" viewBox="0 0 490.043 490.043" style="enable-background:new 0 0 490.043 490.043;" xml:space="preserve" width="50" height="50" fill="black">
    <path d="M252.042,277.301l73.9,79.7c5.1,5.4,6.2,13.2,3.1,19.8l0,0c-6.3,14.5,12.4,29.9,12.4,29.9 c20.6,22.2,126.8,100.3,148.6,79.7l0,0l-442.9-477.4c-10.5-11.3-27.6-11.7-38.5-1.2l0,0c-10.9,10.5-11.7,28-1.2,38.9l210.8,227.5 c8.1,9.4,20.6,0.4,20.6,0.4C243.143,272.301,248.542,273.401,252.042,277.301z"/>
</svg>