<?xml version="1.0" encoding="UTF-8" standalone="no"?>
<!DOCTYPE svg PUBLIC "-//W3C//DTD SVG 1.1//EN" "http://www.w3.org/Graphics/SVG/1.1/DTD/svg11.dtd">
<svg width="100%" height="100%" viewBox="0 0 753 253" version="1.1" xmlns="http://www.w3.org/2000/svg" xmlns:xlink="http://www.w3.org/1999/xlink" xml:space="preserve" xmlns:serif="http://www.serif.com/" style="fill-rule:evenodd;clip-rule:evenodd;stroke-linejoin:round;stroke-miterlimit:2;">
    <g id="Artboard1" transform="matrix(11.7656,0,0,4.28814,82.3594,17.1525)">
        <rect x="-7" y="-4" width="64" height="59" style="fill:none;"/>
        <clipPath id="_clip1">
            <rect x="-7" y="-4" width="64" height="59"/>
        </clipPath>
        <g clip-path="url(#_clip1)">
            <g id="logo-container" serif:id="logo container" transform="matrix(0.955224,0,0,3.45863,-19.4179,-21.1548)">
                <path d="M80,6.656C80,5.742 79.021,5 77.815,5L15.185,5C13.979,5 13,5.742 13,6.656L13,20.344C13,21.258 13.979,22 15.185,22L77.815,22C79.021,22 80,21.258 80,20.344L80,6.656Z" style="fill:rgb(210,48,44);"/>
            </g>
            <g transform="matrix(0.590453,-1.73725,0.633164,1.62006,-6.41408,40.3049)">
                <path d="M25.716,28.294L33.256,36.425C33.777,36.976 33.889,37.772 33.573,38.446C32.93,39.925 34.838,41.496 34.838,41.496C36.94,43.762 47.776,51.73 50,49.628L4.81,0.918C3.739,-0.235 1.994,-0.275 0.882,0.796C-0.23,1.867 -0.312,3.653 0.759,4.765L22.268,27.977C23.094,28.936 24.369,28.018 24.369,28.018C24.808,27.783 25.359,27.896 25.716,28.294Z" style="fill:rgb(247,247,249);fill-rule:nonzero;"/>
            </g>
            <g transform="matrix(0.0849934,0,0,0.233202,-8.19957,-1.96505)">
                <g transform="matrix(144,0,0,144,51.3136,132.864)">
                    <path d="M0.473,-0.497C0.462,-0.51 0.447,-0.521 0.429,-0.53C0.411,-0.538 0.39,-0.542 0.366,-0.542C0.347,-0.542 0.331,-0.538 0.316,-0.53C0.301,-0.522 0.293,-0.51 0.293,-0.493C0.293,-0.48 0.299,-0.469 0.312,-0.462C0.325,-0.455 0.343,-0.447 0.368,-0.439C0.399,-0.429 0.426,-0.418 0.45,-0.405C0.474,-0.392 0.494,-0.378 0.511,-0.361C0.528,-0.344 0.541,-0.325 0.55,-0.304C0.559,-0.283 0.563,-0.259 0.563,-0.232C0.563,-0.187 0.553,-0.148 0.533,-0.116C0.513,-0.084 0.488,-0.058 0.457,-0.038C0.426,-0.018 0.391,-0.003 0.354,0.006C0.317,0.015 0.28,0.02 0.245,0.02C0.217,0.02 0.189,0.018 0.161,0.013C0.133,0.008 0.106,0.002 0.081,-0.007C0.055,-0.016 0.031,-0.026 0.008,-0.039C-0.015,-0.052 -0.034,-0.066 -0.051,-0.082L0.107,-0.228C0.115,-0.219 0.125,-0.21 0.136,-0.203C0.147,-0.196 0.159,-0.19 0.172,-0.185C0.184,-0.18 0.196,-0.175 0.209,-0.173C0.222,-0.17 0.233,-0.168 0.244,-0.168C0.267,-0.168 0.286,-0.172 0.3,-0.18C0.314,-0.187 0.321,-0.198 0.321,-0.213C0.321,-0.225 0.315,-0.236 0.304,-0.245C0.292,-0.254 0.27,-0.264 0.238,-0.274C0.213,-0.282 0.189,-0.291 0.167,-0.302C0.144,-0.313 0.125,-0.326 0.109,-0.341C0.092,-0.356 0.079,-0.374 0.07,-0.395C0.061,-0.416 0.056,-0.441 0.056,-0.471C0.056,-0.508 0.064,-0.542 0.079,-0.573C0.094,-0.604 0.115,-0.631 0.143,-0.655C0.17,-0.678 0.203,-0.696 0.242,-0.709C0.28,-0.721 0.322,-0.728 0.368,-0.728C0.393,-0.728 0.418,-0.726 0.443,-0.722C0.468,-0.717 0.491,-0.711 0.513,-0.704C0.535,-0.696 0.555,-0.687 0.574,-0.676C0.593,-0.665 0.608,-0.653 0.621,-0.64L0.473,-0.497Z" style="fill:rgb(247,247,249);fill-rule:nonzero;"/>
                </g>
                <g transform="matrix(144,0,0,144,137.858,132.864)">
                    <path d="M0.655,-0.081C0.641,-0.069 0.625,-0.057 0.607,-0.045C0.588,-0.032 0.567,-0.021 0.544,-0.012C0.521,-0.003 0.495,0.005 0.466,0.011C0.436,0.017 0.404,0.02 0.369,0.02C0.316,0.02 0.268,0.013 0.227,-0.002C0.185,-0.017 0.15,-0.038 0.121,-0.065C0.091,-0.092 0.069,-0.125 0.054,-0.164C0.039,-0.203 0.031,-0.246 0.031,-0.293C0.031,-0.354 0.042,-0.41 0.063,-0.463C0.084,-0.516 0.113,-0.562 0.151,-0.601C0.189,-0.64 0.234,-0.671 0.286,-0.694C0.338,-0.717 0.395,-0.728 0.457,-0.728C0.518,-0.728 0.572,-0.719 0.619,-0.7C0.666,-0.681 0.701,-0.657 0.726,-0.629L0.565,-0.463C0.553,-0.48 0.537,-0.493 0.518,-0.502C0.498,-0.51 0.476,-0.514 0.451,-0.514C0.426,-0.514 0.403,-0.509 0.382,-0.499C0.361,-0.488 0.344,-0.474 0.329,-0.457C0.314,-0.439 0.303,-0.418 0.295,-0.395C0.287,-0.372 0.283,-0.347 0.283,-0.32C0.283,-0.285 0.294,-0.256 0.316,-0.232C0.337,-0.208 0.37,-0.196 0.413,-0.196C0.438,-0.196 0.462,-0.201 0.484,-0.212C0.506,-0.223 0.525,-0.236 0.541,-0.251L0.655,-0.081Z" style="fill:rgb(247,247,249);fill-rule:nonzero;"/>
                </g>
                <g transform="matrix(144,0,0,144,236.642,132.864)">
                    <path d="M0.44,-0L0.488,-0.272L0.286,-0.272L0.238,-0L0.007,-0L0.132,-0.708L0.362,-0.708L0.319,-0.465L0.521,-0.465L0.564,-0.708L0.796,-0.708L0.671,-0L0.44,-0Z" style="fill:rgb(247,247,249);fill-rule:nonzero;"/>
                </g>
                <g transform="matrix(144,0,0,144,351.554,132.864)">
                    <path d="M0.007,-0L0.132,-0.708L0.595,-0.708L0.561,-0.515L0.316,-0.515L0.304,-0.447L0.538,-0.447L0.506,-0.267L0.272,-0.267L0.259,-0.193L0.533,-0.193L0.499,-0L0.007,-0Z" style="fill:rgb(247,247,249);fill-rule:nonzero;"/>
                </g>
                <g transform="matrix(144,0,0,144,436.802,132.864)">
                    <path d="M0.651,-0L0.73,-0.41L0.724,-0.41L0.515,-0L0.352,-0L0.289,-0.41L0.284,-0.41L0.223,-0L0.007,-0L0.132,-0.708L0.427,-0.708L0.489,-0.32L0.494,-0.32L0.678,-0.708L1.001,-0.708L0.876,-0L0.651,-0Z" style="fill:rgb(247,247,249);fill-rule:nonzero;"/>
                </g>
                <g transform="matrix(144,0,0,144,581.234,132.864)">
                    <path d="M0.48,-0L0.464,-0.108L0.234,-0.108L0.175,-0L-0.083,-0L0.352,-0.708L0.596,-0.708L0.72,-0L0.48,-0ZM0.424,-0.467L0.323,-0.285L0.445,-0.285L0.424,-0.467Z" style="fill:rgb(247,247,249);fill-rule:nonzero;"/>
                </g>
                <g transform="matrix(144,0,0,144,692.834,132.864)">
                    <path d="M0.136,0.005C0.101,0.005 0.074,-0.005 0.054,-0.025C0.033,-0.045 0.023,-0.068 0.023,-0.095C0.023,-0.113 0.026,-0.13 0.033,-0.146C0.039,-0.162 0.048,-0.176 0.059,-0.188C0.07,-0.199 0.084,-0.209 0.1,-0.216C0.116,-0.223 0.134,-0.226 0.153,-0.226C0.17,-0.226 0.185,-0.223 0.199,-0.218C0.213,-0.213 0.225,-0.205 0.235,-0.196C0.245,-0.187 0.253,-0.176 0.258,-0.164C0.263,-0.152 0.266,-0.14 0.266,-0.127C0.266,-0.109 0.263,-0.092 0.257,-0.076C0.25,-0.06 0.241,-0.046 0.23,-0.034C0.219,-0.022 0.205,-0.012 0.189,-0.006C0.173,0.002 0.155,0.005 0.136,0.005ZM0.192,-0.295C0.157,-0.295 0.13,-0.305 0.11,-0.325C0.089,-0.345 0.079,-0.368 0.079,-0.395C0.079,-0.413 0.082,-0.43 0.089,-0.446C0.095,-0.462 0.104,-0.476 0.115,-0.488C0.126,-0.499 0.14,-0.509 0.156,-0.516C0.172,-0.523 0.19,-0.526 0.209,-0.526C0.226,-0.526 0.241,-0.523 0.255,-0.518C0.269,-0.513 0.281,-0.505 0.291,-0.496C0.301,-0.487 0.309,-0.476 0.314,-0.464C0.319,-0.452 0.322,-0.44 0.322,-0.427C0.322,-0.409 0.319,-0.392 0.313,-0.376C0.306,-0.36 0.297,-0.346 0.286,-0.334C0.275,-0.322 0.261,-0.313 0.245,-0.306C0.229,-0.299 0.211,-0.295 0.192,-0.295Z" style="fill:rgb(247,247,249);fill-rule:nonzero;"/>
                </g>
            </g>
            <g transform="matrix(0.0469442,0.000495897,-7.98035e-05,0.0568729,-10.8378,22.792)">
                <path d="M760,386C760,376.066 756.439,368 752.052,368L169.948,368C165.561,368 162,376.066 162,386C162,395.934 165.561,404 169.948,404L752.052,404C756.439,404 760,395.934 760,386Z" style="fill:rgb(210,48,44);"/>
            </g>
            <g transform="matrix(0.0753376,0.000557371,-0.000203141,0.206708,-39.8678,-44.7553)">
                <circle cx="491.5" cy="414.5" r="22.5" style="fill:rgb(210,48,44);"/>
            </g>
            <g transform="matrix(0.0261866,0,0,0.145143,-7.69542,-11.9296)">
                <rect x="111" y="334" width="146" height="50" style="fill:rgb(247,247,249);"/>
            </g>
        </g>
    </g>
</svg>
